<svg version="1.2" xmlns="http://www.w3.org/2000/svg" viewBox="0 0 256 256" width="256" height="256">
	<title>새 프로젝트</title>
	<style>
		.s0 { fill: #edc766 } 
		.s1 { fill: #000000 } 
	</style>
	<g id="&lt;Group&gt;">
		<g id="&lt;Group&gt;">
			<g id="&lt;Group&gt;">
				<path id="&lt;Path&gt;" class="s0" d="m137 59.1c11.9 3.7 3.9 16 1.6 22.1c9.5-3.2 17.4-5.9 27.8-7c8.3-0.8 15.9 1.1 17.9 8.4c1.4 5.4-2.6 11-7.1 14.7c9.8-8.3 42.9 6.1 49.8 18.5c1.5 2.8 1.8 5.5 0.2 7.8c-7.9 11.7-38.1 23.2-50.6 13.9c5 3.7 9.7 9.4 8.3 15.3c-1.8 7.3-9.4 9.3-17.7 8.6c-10.4-0.9-18.4-3.4-28-6.5c2.4 5.9 8.4 13.2 2.7 19.4c-12.7 13.7-37-7.7-45.3-15.1c-14.3-12.7-36.9-33.1-30.1-51.8c3.1-8.5 18.6-25.7 35.5-37.3c12.3-8.4 25.4-13.9 35-11z" />
				<g id="&lt;Group&gt;">
					<path id="&lt;Path&gt;" class="s0" d="m104.5 72.9c-7.7 5.4-14.9 11.5-21.4 18.2c-4.6 4.7-9.6 10.1-12.5 16.1c-5 10.6 2.4 22 8.9 29.9c6.8 8.2 14.9 15.4 23 22.3c7.1 6.1 15.4 12.8 24.7 15.1c4.1 1 9 0.8 11.9-2.8c3.7-4.5-1.4-10.8-3.2-15.1c-1.3-3 1.3-6.3 4.5-5.2c9.7 3 19.8 6.5 30.1 6.4c4.3-0.1 10.2-1.3 10.9-6.5c0.5-4.3-3.8-8.3-6.9-10.6c-3.8-3 0.2-9 4.2-6.3c7.8 5.4 19.5 2.3 27.6-0.9c4.5-1.8 9.1-4.1 13-7.1c3.7-2.9 6.7-5.8 3.3-10.4c-4.9-6.6-13.7-11-21.1-13.9c-5.6-2.1-16.3-6.2-21.8-1.9c-3.8 2.9-8.6-2.5-4.9-5.7c3.1-2.7 7.4-7.2 5.6-11.8c-2-5-8.7-5.2-13.2-4.8c-9.3 0.8-18.2 3.7-27 6.7c-2.8 0.9-6.5-1.2-5.2-4.5c1.8-4.7 8.4-14.4 1.4-17.2c-10.3-4.1-23.8 4.6-31.9 10c-4 2.7-8.9-3-4.9-5.7c10.9-7.3 27.8-17.5 41.2-10.5c10.9 5.6 4.6 17.4 1.3 25.7q-2.6-2.3-5.2-4.5c12.4-4.2 29.1-11.2 42-6.1c5.5 2.1 9.7 7.4 9.4 13.5c-0.2 6-4.3 11-8.6 14.9q-2.5-2.9-4.9-5.7c7.1-5.5 17.4-3.3 25.2-0.8c12.6 4 43.2 19.4 27.3 35.6c-6.8 6.9-16.7 11.3-26.1 13.7c-8.6 2.2-19 3-26.7-2.3q2.1-3.2 4.2-6.3c4.8 3.8 9.6 8.7 10.1 15.1c0.5 5.6-2.7 10.9-7.5 13.4c-6 3.2-13.2 2.6-19.6 1.6c-8.1-1.1-15.9-3.5-23.7-6q2.3-2.6 4.6-5.2c2.8 6.5 7.8 13.4 4 20.6c-3 5.8-9.5 8.8-15.8 8.6c-11.7-0.3-22.6-8.6-31.2-15.7c-9.9-8.3-19.8-17.1-27.7-27.3c-7.7-10-14-23.3-7.9-35.7c3.2-6.4 8.2-12.1 13.1-17.3c6.8-7.2 14.4-13.6 22.5-19.3c3.9-2.7 8.9 3 4.9 5.7z" />
				</g>
			</g>
		</g>
		<g id="&lt;Group&gt;">
			<path id="&lt;Path&gt;" class="s1" d="m98.8 121.8c-25.3-0.6-50.6 0-75.8 1.7c-4.8 0.3-6.3-7-1.5-7.4c25.9-1.7 51.8-2.4 77.7-1.8c4.9 0.1 4.4 7.6-0.4 7.5z" />
		</g>
	</g>
</svg>