<svg version="1.2" xmlns="http://www.w3.org/2000/svg" viewBox="0 0 256 256" width="256" height="256">
	<title>새 프로젝트</title>
	<style>
		.s0 { fill: #e0bcab } 
		.s1 { fill: #222221 } 
	</style>
	<g id="&lt;Group&gt;">
		<path id="&lt;Path&gt;" class="s0" d="m213 176.2c-2.8 1.9-5.7 3.7-8.6 5.5c-24.7 15-53.4 30.9-82.4 35c-11.3 1.6-22.9 0.5-29.6-9.8c-12.7-19.6-17.8-47.2-19-70.2c-1.2-23.6-2.6-48.5 7.1-70.7c1.5-3.3 3.3-6.6 6.4-8.4c23.3-13.2 28.9 39.6 26.2 50.7c4.8-19.7 9.3-34.6 20.9-51.3c2.5-3.5 5.6-6.6 9.6-8c5.6-1.9 12 0 16.1 4.2c10.3 10.3 9.4 24.4 7.1 36.9c-0.7 4.4-1 11.7-3.3 15.6c6.3-10.4 16.9-18.2 28.7-21c5.2-1.2 11.6-1.1 14.7 3.2c2.7 3.6 1.9 8.7 0.7 13.1c-2.6 9.5-6.6 18.7-11.7 27.2c4.1-6.8 21.9-11.3 29.4-11.4c16-0.2 21.4 11.4 16.5 25.8c-4.6 13.2-15.3 24.4-28.8 33.6z" />
		<g id="&lt;Group&gt;">
			<path id="&lt;Path&gt;" class="s0" d="m213.9 177.9c-15.4 10.4-32 19.7-49 27.4c-15.1 6.8-31.8 13.1-48.6 13.8c-12.9 0.6-22-4.7-28.3-15.9c-7-12.6-11.1-26.7-13.6-40.9c-2.5-14.5-3.3-29.2-3.7-43.9c-0.3-15.6 0.5-31.5 5.5-46.4c2.9-8.7 8-19.4 19-18.3c6.6 0.7 10.9 6.6 13.5 12.1c3.5 7.4 5.2 15.7 6.2 23.8c0.7 6.2 1.4 13.1 0 19.2q-1.8-0.5-3.6-1c3.3-13.4 7-26.8 13.4-39.1c5.3-10 12.8-24.4 26.3-22.1c11.6 2 17.9 14.2 18.9 24.9c0.6 5.9-0.1 11.9-1 17.7c-0.9 5.8-1 12.1-3.8 17.4q-1.6-0.9-3.2-1.9c4.7-7.6 11.4-13.9 19.4-17.9c6.4-3.3 15-6.4 22.1-3.7c7.6 2.8 7.9 10.8 6.2 17.7c-2.5 9.9-6.8 19.5-12 28.3q-1.7-0.9-3.3-1.9c5.1-7.5 16.8-10.4 25.3-11.7c8.1-1.3 17.8-0.5 22.9 7c5.6 8.3 2.3 19.6-2 27.7c-6 11.5-16 20.3-26.6 27.7c-1.9 1.3-3.8-1.9-1.8-3.3c9-6.3 17.5-13.7 23.3-23.1c4.3-7 8.7-17.1 4.9-25.2c-3.7-8.1-13.8-8.3-21.4-6.9c-6.9 1.3-17.1 3.5-21.3 9.7c-1.4 2-4.5 0.2-3.3-1.9c4.5-7.5 22.5-39.7 4.7-41.2c-13.5-1.2-27.2 10-33.9 20.6c-1.3 2.1-4.4 0.3-3.2-1.9c2.3-4.4 2.3-9.7 3-14.5c0.8-5 1.6-10 1.5-15.1c-0.2-10.7-6.4-26.4-19.7-24.9c-7.2 0.9-11.3 7.7-14.8 13.4q-4.1 6.7-7.2 13.9c-4.4 10.1-7.2 20.7-9.8 31.3c-0.6 2.4-4.1 1.4-3.6-1c1.4-6.3 0.5-13.6-0.4-20c-1.1-7.8-2.9-16.2-7-23.1c-3.2-5.3-8.2-9.1-14.5-6.3c-6.6 2.9-8.8 11.6-10.7 18c-2 6.8-3.1 13.8-3.7 20.9c-1.2 13.6-0.5 27.4 0.4 41c0.7 12.6 2.5 25.2 5.8 37.4c1.8 6.6 4 13.2 6.8 19.4c2.6 5.4 5.5 11.7 10.3 15.6c10.2 8 25.7 4.3 37.1 1.4c27.2-7.2 53.4-21.8 76.7-37.5c2-1.3 3.8 1.9 1.8 3.3z" />
		</g>
	</g>
	<g id="&lt;Group&gt;">
		<g id="&lt;Group&gt;">
			<path id="&lt;Path&gt;" class="s1" d="m96.7 162.6c12.9-12.4 27.5-28.9 28.3-47.8c0.6-11.9-11.5-6.8-16.5-2.6c-3.8 3.2-7.1 7.1-10 11.1c-1.3 2-4.6 0.1-3.2-1.9c7.6-10.9 15.1-22.9 17.4-36.2c1.2-7.4-1.3-14.8-10.1-14.1c-6.2 0.5-12.4 4.2-16.5 8.7c-1.7 1.8-4.1-0.8-2.7-2.6c4.4-5.5 3.1-15.4 1.4-21.6c-2.1-7.4-6.6-15-15.1-15c-8.7 0-13.2 7.9-15.2 15.5c-1.6 6.1-2.8 15.7 1.5 21.1c1.5 1.8-1 4.4-2.6 2.6c-4.1-4.5-10.4-8.3-16.6-8.7c-8.8-0.7-11.3 6.7-10 14.1c2.3 13.3 9.8 25.3 17.4 36.2c1.3 2-1.9 3.9-3.3 1.9c-4.2-6-11.6-15.5-19.6-16.1c-16.4-1.1 0.6 30.6 4.4 36c8.3 12 19.8 24.5 32.8 31.2c6.7 3.4 12.3 3.9 19.4 1.1c7.1-2.9 13.2-7.7 18.8-12.9c1.7-1.6 4.4 1 2.6 2.7c-9.6 9-24.1 19.9-38 14.5c-13.2-5.2-24-16.3-32.9-27c-8.6-10.2-15.9-22.2-17.5-35.7c-0.6-5.1 0.2-9.9 5-12.5c3.3-1.8 6.9-1.3 10.2 0.1c7.5 3.2 13.5 10.2 18.1 16.7q-1.7 1-3.3 1.9c-5.6-8.1-10.9-16.6-14.4-25.8c-2.4-6.2-5.1-14.1-3.5-20.8c4-16.5 25.4-7.8 33 0.5q-1.3 1.3-2.6 2.6c-4.8-6-4.4-15.2-3-22.3c1.3-6.9 4.6-14.7 10.9-18.5c5.8-3.6 13.8-2.8 19 1.5c9.5 8 13.9 29.1 5.8 39.3q-1.3-1.3-2.7-2.6c7.6-8.3 29.1-17 33-0.5c1.7 7-1.2 15.2-3.7 21.6c-3.6 8.9-8.7 17.1-14.2 25q-1.6-0.9-3.2-1.9c5.5-7.8 21.6-26.5 31.5-14.1c5.8 7.3-0.7 21.7-4.3 28.7c-5.7 11.1-14.2 20.6-23.2 29.3c-1.7 1.6-4.4-1-2.6-2.7z" />
		</g>
		<g id="&lt;Group&gt;">
			<path id="&lt;Path&gt;" class="s1" d="m72.5 100.8c-1.8 38.8-2.3 77.6-1.3 116.5c0.1 2.4-3.7 2.4-3.7 0c-1-38.9-0.6-77.7 1.3-116.5c0.1-2.4 3.8-2.4 3.7 0z" />
		</g>
	</g>
</svg>