<svg version="1.2" xmlns="http://www.w3.org/2000/svg" viewBox="0 0 256 256" width="256" height="256">
	<title>새 프로젝트</title>
	<style>
		.s0 { fill: #e0bcab } 
		.s1 { fill: #222221 } 
	</style>
	<g id="&lt;Group&gt;">
		<path id="&lt;Path&gt;" class="s0" d="m190.9 147c-7.6 7.1-26.5 16.7-39.7 16.9c-10.9-7.6-21.2-26.2-23.5-36.4c-4.6-19.7-0.2-39.3 10.2-55.4c9.3-14.5 22.1-23.6 37.4-31.1c12.8-6.2 14.3-4.5 20.8 4.8c23.1 33.6 20.5 77.1-5.2 101.2z" />
		<g id="&lt;Group&gt;">
			<path id="&lt;Path&gt;" class="s0" d="m194.5 46.8c-2.5-3.6-5-8.3-10-7.4c-5.3 1-10.6 4.3-15.3 6.9c-10.8 6-20.7 13.8-27.9 24.1c-12.9 18.3-18.2 43.7-9 64.8c3.8 8.7 9.3 18.5 16.8 24.6c2.8 2.4 4.7 2.2 8.1 1.6c2.4-0.5 4.7-1.1 7-1.9c5.1-1.6 9.9-3.8 14.6-6.4c16.8-9.4 27.2-26.3 30.2-45.2c3.5-21.4-2.5-43.3-14.5-61.1c-1.4-2 1.8-3.9 3.2-1.9c14.9 22.1 20.8 50.6 11.9 76.2c-7.5 21.5-24.2 36-45.8 42.5c-4 1.2-10.8 3.6-14.6 1.2c-3.6-2.2-6.6-6-9.2-9.3c-6.6-8.5-12.3-18.6-14.5-29.2c-5.3-25.9 4.6-53.3 24.1-70.8c8.8-7.9 19.6-14.6 30.7-18.7c8.7-3.2 12.7 1.3 17.4 8.1c1.4 2-1.9 3.9-3.2 1.9z" />
		</g>
	</g>
	<g id="&lt;Group&gt;">
		<g id="&lt;Group&gt;">
			<path id="&lt;Path&gt;" class="s1" d="m173.1 187.6c-7-2.6-11.2-9.4-14.6-15.7c-4.6-8.4-8.8-17.1-12.4-26c-1-2.4-2.9-5.7-1.2-8.3c1.5-2.4 5.1-2.5 7.5-2.9c9-1.3 18-1.3 27 0.1c9.4 1.4 18.6 4.1 27.4 7.8c4.3 1.9 16.5 5.7 15.6 12.1c-0.5 3.5-5.4 7.2-7.8 9.5c-4.3 4.4-8.9 8.6-13.8 12.4c-7.2 5.7-17.8 13.7-27.7 11c-2.3-0.6-1.3-4.2 1-3.6c10.4 2.8 22.7-8.6 29.7-14.8q5.9-5.2 11.4-10.9c2.1-2.2 4.3-3.3 1.1-6.6c-2.9-3-9.3-5-13-6.5c-8-3.2-16.4-5.6-24.9-6.8c-5.4-0.8-10.8-1.1-16.2-0.9c-3.6 0.2-13.4-0.6-13.8 4.1c-0.2 2.1 2.5 6.1 3.3 8q1.1 2.5 2.3 5.1q3 6.4 6.3 12.7c3.2 6.1 7 14.1 13.8 16.6c2.2 0.9 1.3 4.5-1 3.6z" />
		</g>
		<g id="&lt;Group&gt;">
			<path id="&lt;Path&gt;" class="s1" d="m108.8 55.5c-3.4-5.6-7.9-10.5-11.3-16q1.1 0.4 2.1 0.8c-17.2 3.7-33.8 12.4-48.1 22.5c-4.4 3.1-11.7 7.7-13.6 13c-0.8 2.2 1.7 4.5 3.3 6.5c14.5 17.4 32.6 33.3 50.8 46.7c4.8 3.5 13.2 11.1 19.7 10c3.4-0.6 6.8-2.9 9.6-4.7c4.8-3 9.3-6.3 13.7-9.8c9.9-7.7 19.4-16.1 28.5-24.8c6.5-6.3 14-12.8 18.8-20.5c4.3-6.9-11.6-16.3-16.4-19.3c-13.5-8.8-28.8-16.2-44.6-19.6q1.1-0.4 2.1-0.8c-3.4 5.5-7.9 10.4-11.3 16c-1.3 2-4.5 0.1-3.3-1.9c3.5-5.6 8-10.5 11.4-16c0.4-0.8 1.3-1.1 2.1-0.9c18.6 4 37.4 13.3 52.5 24.8c4.3 3.4 10 7.6 11.9 13.1c1 3.3-0.5 5.7-2.4 8.3c-6.6 8.8-15 16.6-23.1 24.1c-10 9.3-20.5 18.3-31.7 26.3c-5.5 3.9-14 11-21.4 9.2c-9.3-2.2-18-10.1-25.3-15.9c-10.8-8.7-21.2-18-31.1-27.7c-3.9-3.9-7.8-7.8-11.4-12c-2.1-2.3-4.7-4.9-5.9-7.8c-3.5-8.1 12.1-17.4 17.2-20.9c14.1-9.6 30.3-17.9 47-21.5c0.9-0.2 1.7 0.1 2.1 0.9c3.5 5.5 8 10.4 11.4 16c1.3 2-2 3.9-3.3 1.9z" />
		</g>
		<g id="&lt;Group&gt;">
			<path id="&lt;Path&gt;" class="s1" d="m112.8 140.8c1 26.2 6.6 52.1 18.8 75.4c1.2 2.1-2.1 4-3.2 1.8c-12.6-23.8-18.3-50.4-19.4-77.2c-0.1-2.4 3.7-2.4 3.8 0z" />
		</g>
		<g id="&lt;Group&gt;">
			<path id="&lt;Path&gt;" class="s1" d="m68.9 76.1c13.5 21.9 28.6 42.8 43.2 64q-1.7 0.7-3.4 1.4c-7.5-26.6-12.3-53.9-19-80.7c-0.6-2.4 3-3.4 3.6-1c6.8 26.8 11.5 54.1 19 80.7c0.6 2.2-2.3 3.1-3.5 1.5c-14.6-21.2-29.6-42.1-43.2-64c-1.3-2.1 2-4 3.3-1.9z" />
		</g>
		<g id="&lt;Group&gt;">
			<path id="&lt;Path&gt;" class="s1" d="m127.8 69.7c-5.8 23.8-11 47.8-15.5 71.8q-1.7-0.7-3.5-1.4c15-21.4 28.8-43.5 43.6-64.9c1.4-2 4.6-0.1 3.2 1.9c-14.8 21.4-28.5 43.5-43.5 64.9c-1.3 1.7-3.8 0.6-3.4-1.5c4.5-24 9.7-48 15.5-71.8c0.6-2.3 4.2-1.3 3.6 1z" />
		</g>
		<g id="&lt;Group&gt;">
			<path id="&lt;Path&gt;" class="s1" d="m167 150.5c3.9 11.6 8.5 23.5 10.1 35.6q-1.7-0.2-3.4-0.4c7.1-10.1 15.2-19.3 23.3-28.6c1.6-1.8 4.2 0.9 2.6 2.7c-7.8 9-15.8 17.9-22.7 27.8c-0.8 1.1-3.2 1.3-3.4-0.5c-1.6-12.1-6.2-24-10.1-35.6c-0.7-2.3 2.9-3.2 3.6-1z" />
		</g>
		<g id="&lt;Group&gt;">
			<path id="&lt;Path&gt;" class="s1" d="m186.1 148.9q-9 33.9-15.4 68.4c-0.4 2.4-4.1 1.3-3.6-1q6.3-34.5 15.4-68.4c0.6-2.3 4.2-1.3 3.6 1z" />
		</g>
	</g>
</svg>