<svg version="1.2" xmlns="http://www.w3.org/2000/svg" viewBox="0 0 256 256" width="256" height="256">
	<title>새 프로젝트</title>
	<style>
		.s0 { fill: #edc766 } 
		.s1 { fill: #222221 } 
	</style>
	<g id="&lt;Group&gt;">
		<path id="&lt;Path&gt;" class="s0" d="m186.2 193c-17.6 18.9-57 39.6-66 34.1c-6.2-3.8-22.9-85.2-15.6-97.1c7.2-11.8 88-34 93.4-30.6c7.9 4.7 8.7 49.9 0 74.2c-6.2-0.1-13.4 1.5-19.5 1.4c2.9 5.4 4.8 12.6 7.7 18z" />
		<g id="&lt;Group&gt;">
			<path id="&lt;Path&gt;" class="s0" d="m178.5 173.1c6.5 0 13-1.3 19.5-1.3q-0.9 0.7-1.8 1.3c5.7-16.4 7-34.8 5.9-52.1c-0.4-5.8-0.6-13.3-3.8-18.6c-1.4-2.3-4.1-1.5-6.9-1.1c-10.3 1.4-20.6 4.3-30.7 7.1c-11.8 3.3-23.5 7-34.9 11.6c-4.7 1.8-9.3 3.8-13.7 6.4c-2.4 1.3-5.2 2.8-6.3 5.4c-1.4 3.2-1.2 7.5-1.1 10.9c0 5.3 0.5 10.5 1.1 15.8c1.4 12.6 3.6 25.3 6.4 37.7c2 8.9 3.7 18.7 7.7 27c3.7 7.7 19.9-1.1 25.1-3.6c14.5-7 28.8-16.2 39.9-27.9q-0.1 1.1-0.3 2.3c-3-5.9-4.8-12.2-7.8-18.1c-1.1-2.1 2.2-4 3.3-1.9c3 5.9 4.8 12.2 7.7 18.1c0.4 0.7 0.4 1.6-0.2 2.2c-13.1 13.7-30.4 24.7-47.9 31.7c-5.3 2.1-12.5 5.1-18.3 3.5c-3.3-0.8-4.4-3.5-5.6-6.4c-4.3-10.5-6.5-22-8.7-33.1c-2.7-13.2-4.9-26.6-5.9-40.1c-0.4-6.7-2-17.4 3.3-22.7c6.7-6.8 18.1-10.1 26.8-13.3c13.1-4.8 26.6-8.9 40.3-12.3c5.4-1.3 10.8-2.6 16.3-3.5c3-0.5 6.7-1.5 9.6-0.8c3.2 0.7 4.6 3.9 5.6 6.7c2.1 6.1 2.6 13 2.9 19.5c0.7 16.8-0.6 34.7-6.2 50.6c-0.2 0.8-0.9 1.4-1.8 1.4c-6.5 0-13 1.3-19.5 1.4c-2.5 0-2.5-3.8 0-3.8z" />
		</g>
	</g>
	<g id="&lt;Group&gt;">
		<g id="&lt;Group&gt;">
			<path id="&lt;Path&gt;" class="s1" d="m127.9 180.1c5.3-4.7 11.2-3.3 17.8-4.3c15.1-2.4 32.9-4.6 39-21.1c2.7-7.4 2.1-16.3-5.2-20.9c-6-3.7-12.2-0.2-18.3 1.1c-4.9 1-19.4 0.3-15.1-8.4c3.4-6.8 12.7-9.3 18.2-13.9c5.7-4.9 14.9-16 5.6-22c-7-4.6-16.1 1.3-21.7 5.6c-4.2 3.2-9.6 7.4-15.2 6.4c-3.6-0.7-5.6-3.7-4.5-7.2c1.2-3.9 5.1-6.9 8-9.5c3.7-3.4 7-6.9 9.4-11.4c1.9-3.5 3.5-7.7 2.1-11.6c-1.5-4.6-6.6-7.5-11.2-6.3c-3.9 1.1-7.2 4.6-9.9 7.5c-1.3 1.5-2.4 3.7-3.9 4.9c-6.4 5.3-8.4-8.2-9-11.6c-1.8-9.5-10-38.3-24.4-23.2c-4.2 4.5-6.4 11-7.4 16.9c-1.2 7.8 0.5 14.4 1.9 21.9c0.6 2.7 1.2 6.6-1.3 8.5c-3.2 2.3-7.7-1.1-10.7-2.1c-4.4-1.6-10.4-3.3-14.8-0.6c-6.8 4.1-5 14.5-0.3 19.4c4.5 4.7 10.3 5.9 16.1 8c3.5 1.3 7.9 3 8.8 7.1c1.6 7.9-9.8 12.5-15.3 14.9c-5.4 2.5-11.6 6.2-12.7 12.6c-1.5 8.2 6.9 12.2 13.7 13c8.2 1 15.8-2.2 23.5-4.5c3.2-0.9 7.7-0.4 6.8 4.1c-0.8 4-6.2 7.4-9.1 9.9c-4.4 3.6-9.2 7.2-12.3 12c-7.9 12.2 1.9 24.6 14.9 25.4c14.4 0.9 26.7-11.7 36.5-20.6c1.8-1.6 4.4 1 2.7 2.7c-5.4 4.8-10.7 9.8-16.7 13.9c-9.9 6.8-22.3 10.8-33.6 4.7c-9-4.8-12.9-15.3-8.8-24.7c2.3-5.4 6.8-9.5 11.1-13.2c2.5-2.1 5-4 7.4-6.2c0.9-0.8 2.9-2.1 3.3-3.3c0.4-1 0.9-0.7-0.4-1.3c-0.2-0.1-3.2 1.1-3.2 1c-11.2 3.7-27.6 8-36.6-2.7c-8.1-9.6 0.8-20.8 9.9-25.2c4.3-2.1 9.1-3.7 12.7-7c7-6.3-4-9-9-10.6c-10.4-3.4-20.3-12.5-17-24.5c3-10.8 13.8-11.2 22.9-8.1c1.7 0.5 7.2 3.8 8.3 1.6c0.8-1.7-1.2-6.4-1.6-8.1c-1.5-6.7-1.8-13.3-0.5-20.1c1.8-9.6 8.3-23.7 20.1-22.6c12.2 1.2 16.3 18.8 18.3 28.1c0.5 2.4 0.7 4.7 1.3 7c0.2 1.1 0.4 2.9 1.1 3.6c1.3 1.4 0.5 0.9 1.9-0.3c4.4-3.7 7.1-8.9 12.8-11.2c11.8-4.8 20.6 7.9 16.9 18.5c-1.8 5.1-5.3 10.1-9.2 13.9c-1.9 1.8-3.9 3.4-5.8 5.2c-0.8 0.8-1.6 1.5-2.3 2.4c-1.8 2.2-2.7 2.9 0.3 4.1c4.7 1.9 9.1-2.5 12.8-5.3c2.7-2 5.5-3.9 8.7-5.2c5.3-2.1 11.7-2.8 16.7 0.5c12 8.1 0.7 23.2-7.4 29.1c-3.3 2.4-6.9 4.1-10.1 6.4c-1.4 1-5.2 3.3-5.5 5.3c-0.7 3.8 6.8 3.4 9.1 3.1c5.6-0.8 11.3-4.1 17.1-3.2c5.7 0.9 10.4 5.2 12.8 10.3c5.2 11.3-2.1 25.1-11.5 31.7c-6 4.2-13.2 6.4-20.5 7.5c-4.3 0.7-8.7 1.5-13 2c-4.7 0.6-9-0.5-12.8 2.9c-1.8 1.6-4.5-1.1-2.7-2.7z" />
		</g>
		<g id="&lt;Group&gt;">
			<path id="&lt;Path&gt;" class="s1" d="m100 56.2c2.9 57.4 21.8 113.2 52.6 161.6c1.3 2-2 3.9-3.2 1.9c-31.2-49-50.2-105.4-53.1-163.5c-0.1-2.4 3.6-2.4 3.7 0z" />
		</g>
		<g id="&lt;Group&gt;">
			<path id="&lt;Path&gt;" class="s1" d="m80.4 93.4c9 3 17.3 7.1 25.1 12.3c2 1.3 0.2 4.6-1.9 3.2c-7.6-5-15.5-9-24.2-11.9c-2.3-0.7-1.3-4.3 1-3.6z" />
		</g>
		<g id="&lt;Group&gt;">
			<path id="&lt;Path&gt;" class="s1" d="m132.1 117.6c-6.3 11.1-10.4 23.1-12.3 35.7c-0.4 2.4-4 1.4-3.6-1c2-12.9 6.2-25.2 12.6-36.6c1.2-2.1 4.5-0.2 3.3 1.9z" />
		</g>
	</g>
</svg>