<svg version="1.2" xmlns="http://www.w3.org/2000/svg" viewBox="0 0 256 256" width="256" height="256">
	<title>새 프로젝트</title>
	<style>
		.s0 { fill: #edc766 } 
		.s1 { fill: #222221 } 
	</style>
	<g id="&lt;Group&gt;">
		<path id="&lt;Path&gt;" class="s0" d="m169.7 69c18.9 17.6 39.6 57 34.1 66c-3.8 6.2-85.2 22.9-97.1 15.6c-11.8-7.2-34-88-30.6-93.5c4.7-7.8 49.9-8.6 74.2 0.1c-0.1 6.1 1.5 13.4 1.4 19.5c5.4-2.9 12.6-4.8 18-7.7z" />
		<g id="&lt;Group&gt;">
			<path id="&lt;Path&gt;" class="s0" d="m149.8 76.7c0-6.5-1.3-13-1.3-19.5q0.6 0.9 1.3 1.8c-16.4-5.7-34.8-7-52.1-5.9c-5.8 0.4-13.4 0.6-18.6 3.8c-2.3 1.4-1.5 4.1-1.1 6.8c1.4 10.4 4.2 20.7 7.1 30.8c3.3 11.8 7 23.5 11.6 34.9c1.8 4.7 3.8 9.3 6.3 13.7c1.4 2.4 2.9 5.2 5.5 6.3c3.2 1.4 7.5 1.2 10.9 1.1c5.3 0 10.5-0.5 15.7-1.1c12.7-1.4 25.4-3.7 37.8-6.4c8.9-2 18.7-3.7 27-7.7c7.7-3.7-1.1-19.9-3.6-25.1c-7-14.5-16.2-28.8-27.9-39.9q1.1 0.1 2.2 0.3c-5.8 3-12.1 4.8-18 7.8c-2.1 1.1-4-2.2-1.9-3.3c5.9-3 12.2-4.8 18.1-7.8c0.7-0.3 1.6-0.3 2.2 0.3c13.7 13.1 24.7 30.4 31.7 47.9c2.1 5.3 5.1 12.4 3.5 18.3c-0.8 3.3-3.5 4.4-6.4 5.6c-10.5 4.3-22 6.5-33.1 8.7c-13.2 2.7-26.6 4.9-40.1 5.9c-6.7 0.4-17.4 2-22.7-3.3c-6.8-6.7-10.1-18.1-13.3-26.8c-4.8-13.1-8.9-26.6-12.3-40.3c-1.3-5.4-2.6-10.8-3.5-16.3c-0.5-3-1.5-6.7-0.8-9.7c0.7-3.1 3.9-4.5 6.7-5.5c6.1-2.1 13-2.6 19.5-2.9c16.8-0.7 34.7 0.6 50.6 6.2c0.8 0.2 1.4 0.9 1.4 1.8c0 6.5 1.3 13 1.4 19.5c0 2.5-3.8 2.5-3.8 0z" />
		</g>
	</g>
	<g id="&lt;Group&gt;">
		<g id="&lt;Group&gt;">
			<path id="&lt;Path&gt;" class="s1" d="m184.5 127.3c-4.7-5.3-3.3-11.2-4.3-17.8c-2.4-15.1-4.6-32.9-21.1-39c-7.3-2.7-16.3-2.1-20.9 5.2c-3.7 6-0.2 12.1 1.1 18.3c1.1 4.9 0.3 19.4-8.4 15.1c-6.8-3.4-9.3-12.7-13.9-18.2c-4.9-5.7-16-14.9-22-5.6c-4.6 7 1.3 16.1 5.6 21.7c3.2 4.2 7.4 9.6 6.4 15.2c-0.7 3.6-3.7 5.6-7.2 4.5c-3.9-1.2-6.9-5.1-9.5-8c-3.4-3.7-6.9-7-11.4-9.5c-3.5-1.8-7.7-3.4-11.6-2c-4.6 1.5-7.5 6.6-6.3 11.2c1.1 3.9 4.6 7.2 7.5 9.9c1.5 1.3 3.7 2.4 4.9 3.9c5.3 6.4-8.2 8.4-11.6 9c-9.5 1.8-38.3 10-23.2 24.4c4.5 4.2 11 6.4 16.9 7.4c7.8 1.2 14.4-0.5 21.9-1.9c2.7-0.6 6.6-1.2 8.5 1.3c2.3 3.2-1.1 7.7-2.1 10.7c-1.6 4.4-3.3 10.4-0.6 14.8c4.1 6.8 14.5 5 19.4 0.3c4.7-4.5 5.9-10.3 8-16.1c1.3-3.5 3-7.9 7.1-8.8c7.9-1.6 12.5 9.8 14.9 15.2c2.5 5.5 6.2 11.7 12.6 12.8c8.2 1.5 12.2-6.9 13-13.7c1-8.2-2.2-15.8-4.4-23.5c-1-3.3-0.5-7.7 4-6.8c4 0.8 7.4 6.2 9.9 9.1c3.6 4.4 7.2 9.2 12 12.3c12.2 7.9 24.6-1.9 25.4-14.9c0.9-14.4-11.7-26.7-20.6-36.5c-1.6-1.8 1-4.5 2.7-2.7c4.8 5.4 9.8 10.7 13.9 16.7c6.8 9.9 10.8 22.3 4.7 33.6c-4.8 9-15.3 12.8-24.7 8.8c-5.4-2.4-9.5-6.8-13.2-11.2c-2.1-2.4-4-4.9-6.2-7.3c-0.8-0.9-2.1-2.9-3.3-3.3c-1-0.4-0.7-0.9-1.3 0.4c-0.1 0.2 1.1 3.2 1.1 3.2c3.6 11.2 7.9 27.6-2.8 36.6c-9.6 8.1-20.8-0.8-25.2-9.9c-2.1-4.3-3.7-9.1-6.9-12.7c-6.4-7-9.1 4-10.7 9c-3.4 10.4-12.5 20.3-24.5 17c-10.8-3-11.2-13.8-8.1-22.9c0.6-1.7 3.8-7.2 1.6-8.3c-1.7-0.8-6.4 1.2-8.1 1.6c-6.7 1.5-13.3 1.8-20.1 0.5c-9.6-1.9-23.7-8.3-22.6-20.1c1.2-12.2 18.8-16.3 28.1-18.3c2.4-0.5 4.7-0.8 7-1.3c1.1-0.2 2.9-0.4 3.6-1.1c1.4-1.3 0.9-0.5-0.3-1.9c-3.7-4.4-8.9-7.1-11.2-12.8c-4.8-11.8 7.9-20.6 18.5-16.9c5.1 1.8 10.1 5.3 13.9 9.2c1.8 1.9 3.4 3.9 5.2 5.8c0.8 0.7 1.6 1.6 2.4 2.3c2.2 1.8 2.9 2.7 4.1-0.3c2-4.7-2.5-9.1-5.3-12.8c-2-2.7-3.9-5.5-5.2-8.7c-2.1-5.3-2.8-11.7 0.5-16.7c8.1-12 23.2-0.7 29.1 7.4c2.4 3.3 4.1 6.9 6.4 10.1c1 1.4 3.3 5.2 5.3 5.5c3.8 0.7 3.4-6.8 3.1-9.1c-0.8-5.6-4.1-11.3-3.2-17.1c0.9-5.7 5.2-10.5 10.3-12.8c11.3-5.2 25.1 2.1 31.7 11.4c4.2 6.1 6.4 13.3 7.6 20.5c0.6 4.4 1.4 8.8 2 13.1c0.5 4.7-0.6 9 2.8 12.8c1.6 1.8-1.1 4.5-2.7 2.7z" />
		</g>
		<g id="&lt;Group&gt;">
			<path id="&lt;Path&gt;" class="s1" d="m60.6 155.2c57.4-2.9 113.2-21.8 161.6-52.6c2-1.3 3.9 1.9 1.9 3.2c-49 31.2-105.4 50.2-163.5 53.1c-2.4 0.1-2.4-3.6 0-3.7z" />
		</g>
		<g id="&lt;Group&gt;">
			<path id="&lt;Path&gt;" class="s1" d="m97.8 174.8c3-9 7.1-17.3 12.3-25.1c1.3-2 4.6-0.2 3.2 1.9c-5 7.6-9 15.5-11.9 24.2c-0.7 2.3-4.3 1.3-3.6-1z" />
		</g>
		<g id="&lt;Group&gt;">
			<path id="&lt;Path&gt;" class="s1" d="m122 123.1c11.1 6.3 23.1 10.4 35.7 12.3c2.4 0.4 1.4 4-1 3.6c-12.9-2-25.2-6.2-36.6-12.6c-2.1-1.2-0.2-4.5 1.9-3.3z" />
		</g>
	</g>
</svg>