<svg version="1.2" xmlns="http://www.w3.org/2000/svg" viewBox="0 0 512 512" width="512" height="512">
	<title>새 프로젝트</title>
	<style>
		.s0 { fill: #a2a05a } 
		.s1 { fill: #000000 } 
	</style>
	<g id="&lt;Group&gt;">
		<g id="&lt;Group&gt;">
			<path id="&lt;Path&gt;" class="s0" d="m27.4 272.9c9.3-52.4 34.7-97 104.2-128.9c-2.9 12.8-7 25.2-11.7 37.2c-11.8 30-35.9 54.9-61.4 73.5q-10.5 7.6-22.3 13.3c-1.9 1-8.1 2.4-8.8 4.9z" />
			<g id="&lt;Group&gt;">
				<path id="&lt;Path&gt;" class="s0" d="m23.8 271.9c2.1-11.6 5-23.1 9.1-34.2c7.3-20 18.5-38.3 33.3-53.6c17.9-18.7 40.1-32.5 63.5-43.3c3-1.4 6.3 0.8 5.5 4.2c-6.8 29.7-18.5 57.4-38.7 80.5c-9.3 10.6-19.9 20-31 28.6c-5.9 4.5-11.8 8.7-18.2 12.3c-3.2 1.9-6.5 3.7-9.9 5.2c-1.9 0.8-5.8 1.3-6.7 3.2c-2.2 4.3-8.6 0.5-6.5-3.8c2.2-4.5 8.4-5.3 12.4-7.4c6.7-3.4 13.2-7.3 19.3-11.7c11.5-8.2 22.3-17.7 32-28.1c21.2-22.9 33.2-50.6 40.1-80.8q2.7 2.1 5.5 4.2c-28.2 13.1-55 30.7-73.7 55.9c-15.5 20.9-24.2 45.4-28.7 70.8c-0.9 4.7-8.1 2.7-7.3-2z" />
			</g>
		</g>
		<g id="&lt;Group&gt;">
			<path id="&lt;Path&gt;" class="s0" d="m100.6 337.7c18.9 21.5 33.7 47.2 40 75.2c-56-26.6-98.9-79.6-113.2-140q54.2 43.2 73.2 64.8z" />
			<g id="&lt;Group&gt;">
				<path id="&lt;Path&gt;" class="s0" d="m103.2 335c19.4 22.2 34.4 48.1 41 76.9c0.8 3.3-2.5 5.6-5.5 4.2c-57-27.3-100.1-80.8-114.9-142.2c-0.9-3.9 3.5-5.9 6.3-3.7c9.9 8 19.7 16.1 29.5 24.3c15 12.8 30.5 25.7 43.6 40.5c3.2 3.6-2.1 8.9-5.3 5.3c-13.1-14.8-28.6-27.7-43.7-40.5c-9.7-8.2-19.5-16.3-29.4-24.3q3.1-1.8 6.3-3.6c14.3 59.7 56 111.2 111.4 137.8q-2.7 2.1-5.5 4.2c-6.3-27.6-20.6-52.4-39.1-73.6c-3.1-3.6 2.1-8.9 5.3-5.3z" />
			</g>
		</g>
		<g id="&lt;Group&gt;">
			<path id="&lt;Path&gt;" class="s0" d="m123.7 279.6q12.9 4.7 24.4 12c27.8 17.7 53.8 42.7 65.7 75.7c4.7 13.2 8.8 26.9 11.4 41.3c-64.6-34.5-98.6-79.3-111.1-133.3c0.6 2.7 7.4 3.5 9.6 4.3z" />
			<g id="&lt;Group&gt;">
				<path id="&lt;Path&gt;" class="s0" d="m117.7 274.3c6.3 26.6 18.1 51.6 35.5 72.8c20.1 24.6 46.1 43.3 73.9 58.2q-2.7 2.2-5.5 4.3c-3.2-17.2-7.9-34.9-15.4-50.8c-6.4-13.5-15.3-25.7-25.7-36.4c-10.3-10.6-21.9-19.7-34.3-27.5c-7.4-4.7-15.5-9.2-23.8-11.8c-3.9-1.2-9.7-1.6-11.6-5.9c-1.9-4.4 4.6-8.2 6.5-3.8c0.7 1.7 5.1 1.8 6.7 2.3c3.5 1.1 6.8 2.6 10 4.1c7.4 3.3 14.4 7.4 21.1 11.9c12.3 8.3 23.9 17.8 33.9 28.8c22.4 24.3 33.8 54.9 39.8 87.1c0.6 3.2-2.4 5.8-5.5 4.2c-13.8-7.4-27.1-15.7-39.6-25.2c-36.4-27.8-62.7-65.5-73.2-110.3c-1.2-4.7 6.1-6.7 7.2-2z" />
			</g>
		</g>
		<g id="&lt;Group&gt;">
			<path id="&lt;Path&gt;" class="s0" d="m114.1 275.3c15.8-56.6 50.1-109.5 107.2-126.5c-7.1 26.2-18.4 57.1-36.2 76.5q-17.9 19.4-71 50z" />
			<g id="&lt;Group&gt;">
				<path id="&lt;Path&gt;" class="s0" d="m182.4 222.6c18.7-20.6 28.1-48.5 35.2-74.8q2.4 2.3 4.7 4.6c-56.2 17.1-89.4 70-104.6 123.9q-2.8-2.2-5.5-4.3c9.6-5.5 19-11.4 28.3-17.4c14.6-9.4 30-19.2 41.9-32c3.3-3.5 8.6 1.8 5.3 5.3c-12.1 13-27.7 22.9-42.4 32.5c-9.6 6.3-19.4 12.4-29.3 18.1c-2.8 1.6-6.4-1.1-5.5-4.2c15.9-56.5 51-111.3 109.8-129.2c2.7-0.8 5.3 2 4.6 4.7c-7.5 27.6-17.6 56.5-37.2 78.1c-3.2 3.6-8.5-1.7-5.3-5.3z" />
			</g>
		</g>
		<g id="&lt;Group&gt;">
			<path id="&lt;Path&gt;" class="s0" d="m226.5 272.1q11.6 3 21.9 8.4c25.2 13.2 49.1 33.2 60.8 61.7c4.6 11.4 8.8 23.4 11.6 36.1c-58.2-24.7-89.9-61.8-103-109.2c0.7 2.4 6.7 2.5 8.7 3z" />
			<g id="&lt;Group&gt;">
				<path id="&lt;Path&gt;" class="s0" d="m221.4 268.1c6.5 23.1 17.8 44.4 34.1 61.9c18.6 20.1 42.2 34.4 67.2 45q-2.7 2.2-5.5 4.3c-6.4-27.9-17.3-54-38.8-73.6c-9.5-8.7-20.4-16-31.8-21.9c-6.6-3.4-13.9-6.6-21.1-8.1c-4-0.8-8.7-0.6-10.9-4.7c-2.3-4.2 4.2-8 6.5-3.8c0.5 1 5.1 1 6.4 1.2c3.5 0.8 7 2.1 10.4 3.4c6.6 2.4 12.8 5.5 18.9 9.1c10.9 6.3 21.2 13.8 30.3 22.6c20.4 20 31 46.4 37.3 73.8c0.8 3.4-2.5 5.5-5.5 4.2c-25.9-11.1-50.5-26.2-69.6-47.1c-16.7-18.4-28.4-40.4-35.1-64.3c-1.3-4.6 5.9-6.6 7.2-2z" />
			</g>
		</g>
		<g id="&lt;Group&gt;">
			<path id="&lt;Path&gt;" class="s0" d="m218 269.2c4.9-51.5 29.4-89 81.1-113.3c-1.3 20.2-11.9 54.1-25.5 71.6q-13.7 17.4-55.6 41.7z" />
			<g id="&lt;Group&gt;">
				<path id="&lt;Path&gt;" class="s0" d="m270.3 225.6c7.7-10.1 12.9-21.9 17-33.9c4-11.5 7.2-23.6 8-35.8q2.9 1.6 5.7 3.2c-22.1 10.5-42.6 24.9-56.8 45.1c-13.4 19.2-20.2 41.8-22.5 65q-2.8-1.7-5.6-3.3c7.5-4.3 14.9-9.1 22.2-13.9c11.5-7.8 23.8-16.2 32.6-27.2c3-3.7 8.3 1.6 5.3 5.3c-8.9 11.2-21.4 19.7-33.1 27.7c-7.6 5.1-15.3 10-23.2 14.6c-2.3 1.3-6-0.3-5.7-3.2c2.4-24.5 9.3-48.5 23.6-68.7c14.9-21.3 36.1-36.8 59.4-47.9c2.3-1.1 5.8 0.2 5.6 3.3c-0.9 12.9-4.1 25.6-8.2 37.8c-4.3 12.5-9.7 25.1-17.8 35.7c-2.9 3.8-9.4 0-6.5-3.8z" />
			</g>
		</g>
		<g id="&lt;Group&gt;">
			<path id="&lt;Path&gt;" class="s0" d="m320.8 255.3q10.8-0.1 20.8 2.4c24.4 6.1 48.7 19 63.6 43.1c5.9 9.6 11.5 19.9 16 31.2c-55.4-8.5-89.3-35.6-108.5-77.2c1 2.1 6.3 0.6 8.1 0.5z" />
			<g id="&lt;Group&gt;">
				<path id="&lt;Path&gt;" class="s0" d="m315.9 252.9c9.2 19.6 22.2 37.3 39.9 50.1c19.5 14.2 42.7 21.7 66.4 25.4q-2.3 2.3-4.6 4.6c-9.7-23.7-23.1-46-45.7-59.2c-9.8-5.7-20.4-9.8-31.3-12.5c-6.4-1.5-13.5-2.6-20.1-2.2c-3.6 0.3-7.8 1.6-10.4-1.7c-3.1-3.7 2.2-9 5.3-5.3c0.4 0.5 5.4-0.5 6.3-0.5c3.2-0.1 6.5 0.2 9.7 0.5c6.2 0.7 12.3 2.1 18.2 4c11 3.3 21.6 8 31.1 14.4c21.6 14.4 34.5 37 44.2 60.5c1.2 3-2.2 5-4.7 4.6c-24.6-3.8-49-11.9-69.2-26.9c-18.3-13.5-32-31.6-41.5-52c-2.1-4.4 4.4-8.2 6.4-3.8z" />
			</g>
		</g>
		<g id="&lt;Group&gt;">
			<path id="&lt;Path&gt;" class="s0" d="m312.6 254.8c3.9-45.3 25.6-78.7 71.9-100.9c-0.9 17.8-10.1 47.8-22.2 63.4q-12.1 15.5-49.7 37.5z" />
			<g id="&lt;Group&gt;">
				<path id="&lt;Path&gt;" class="s0" d="m359.1 215.4c6.8-9 11.3-19.4 14.9-30c3.4-10.1 6.1-20.8 6.8-31.5q2.8 1.6 5.6 3.2c-19.6 9.5-37.9 22.4-50.5 40.5c-11.8 16.9-17.7 36.8-19.5 57.2q-2.8-1.6-5.6-3.3c6.7-3.9 13.3-8.2 19.8-12.6c10.3-7 21.2-14.4 29.1-24.3c3-3.8 8.3 1.6 5.3 5.3c-8 10-19.2 17.7-29.7 24.8c-6.7 4.7-13.7 9.2-20.8 13.3c-2.2 1.4-5.9-0.3-5.6-3.2c1.9-21.7 7.9-43 20.5-61c13.3-19.2 32.4-33 53.2-43.1c2.4-1.2 5.8 0.2 5.7 3.2c-0.7 11.4-3.4 22.7-7.1 33.5c-3.7 11.2-8.5 22.3-15.6 31.8c-2.9 3.8-9.4 0-6.5-3.8z" />
			</g>
		</g>
		<g id="&lt;Group&gt;">
			<path id="&lt;Path&gt;" class="s0" d="m418.7 230.3q8.4-1 16.4 0.1c19.5 2.7 39.5 10.8 53.1 28.3c5.4 7 10.6 14.6 15 23c-43.9-2-72.5-20.3-90.8-51.2c0.9 1.6 5-0.1 6.3-0.2z" />
			<g id="&lt;Group&gt;">
				<path id="&lt;Path&gt;" class="s0" d="m415.6 228.6c8.6 14.3 20 26.6 34.5 35.1c16.2 9.4 34.6 13.3 53.1 14.3q-1.6 2.8-3.2 5.6c-9.5-17.6-21.5-33.8-40.1-42.4c-8.5-3.9-18.1-6.4-27.5-7.3c-4.7-0.5-9.7-0.6-14.4 0.4c-3.1 0.6-5.6 1.1-8.3-1.2c-3.6-3.1 1.7-8.4 5.3-5.3c-0.7-0.6 3.1-1.2 3.7-1.3c2.8-0.4 5.6-0.5 8.3-0.4c5 0 10.1 0.7 15 1.7c8.7 1.7 17.2 4.5 25.1 8.7c17.9 9.3 30 25.9 39.4 43.3c1.3 2.4-0.3 5.8-3.3 5.7c-19.8-1-39.6-5.3-56.9-15.4c-15.6-9-27.9-22.3-37.2-37.7c-2.4-4.2 4-7.9 6.5-3.8z" />
			</g>
		</g>
		<g id="&lt;Group&gt;">
			<path id="&lt;Path&gt;" class="s0" d="m412.3 230.6c-0.8-35.6 13.4-63.4 47.7-84.5c0.7 14-4 38.1-12.1 51.2q-8.1 13.1-35.6 33.3z" />
			<g id="&lt;Group&gt;">
				<path id="&lt;Path&gt;" class="s0" d="m444.7 195.4c8.4-14.1 12.2-32.9 11.5-49.3q2.8 1.6 5.7 3.3c-14.4 8.9-27.4 20.4-35.7 35.4c-7.7 14-10.4 29.9-10.2 45.8q-2.8-1.7-5.6-3.3c12.1-8.9 26-19.1 34.3-31.9c2.6-4.1 9.1-0.3 6.4 3.8c-8.9 13.9-23.7 24.9-36.9 34.6c-2.4 1.8-5.6-0.6-5.7-3.2c-0.2-17.2 2.9-34.4 11.3-49.6c8.9-16.1 22.8-28.5 38.3-38.1c2.5-1.6 5.5 0.5 5.6 3.2c0.8 17.6-3.4 37.9-12.6 53.1c-2.5 4.1-8.9 0.3-6.4-3.8z" />
			</g>
		</g>
		<g id="&lt;Group&gt;">
			<path id="&lt;Path&gt;" class="s1" d="m470.6 215.5c-32.2 11.4-65 21.4-98.1 29.8c-118.5 29.9-241.9 40.1-363.7 29.9c-4.8-0.4-4.8-7.9 0-7.5c34.1 2.9 68.3 4.2 102.5 3.8c121.6-1.1 242.7-22.6 357.3-63.2c4.6-1.7 6.5 5.6 2 7.2z" />
		</g>
	</g>
</svg>